<svg width="90" height="27" viewBox="0 0 90 27" fill="none" xmlns="http://www.w3.org/2000/svg">
<path d="M26.9947 6.6587C26.9632 6.36829 26.7827 6.11127 26.513 5.98539L13.8567 0.0791411C13.6306 -0.0263804 13.3693 -0.0263804 13.1431 0.0791411L0.486896 5.98539C0.217213 6.11127 0.0367559 6.36824 0.00516797 6.6587C0.00448242 6.66477 0 6.74556 0 6.74999V21.0937C0 21.4387 0.210041 21.749 0.530402 21.8771L13.1867 26.9396C13.2872 26.9798 13.3936 27 13.5 27C13.6064 27 13.7128 26.9799 13.8133 26.9396L26.4696 21.8771C26.79 21.749 27 21.4387 27 21.0937V6.74999C27 6.74556 26.9954 6.66471 26.9947 6.6587ZM13.5 1.77481L24.0334 6.6904L19.9774 8.31282L9.24576 3.76016L13.5 1.77481ZM7.18822 4.72035L17.7533 9.2024L13.5 10.9037L2.96662 6.6904L7.18822 4.72035ZM1.6875 7.9962L12.6562 12.3837V24.91L1.6875 20.5225V7.9962ZM14.3438 24.91V12.3837L25.3125 7.9962V20.5225L14.3438 24.91Z" fill="#0A143A"/>
<path d="M44.1562 18.4841H37.9922L36.8203 21.9998H33.082L39.4336 4.93725H42.6914L49.0781 21.9998H45.3398L44.1562 18.4841ZM38.9414 15.6365H43.207L41.0625 9.24975L38.9414 15.6365Z" fill="#0A143A"/>
<path d="M61.875 15.7771C61.875 17.8083 61.4414 19.3943 60.5742 20.5349C59.707 21.6677 58.4961 22.2341 56.9414 22.2341C55.5664 22.2341 54.4688 21.7068 53.6484 20.6521L53.4961 21.9998H50.4492V3.99975H53.8359V10.4568C54.6172 9.54272 55.6445 9.08569 56.918 9.08569C58.4648 9.08569 59.6758 9.656 60.5508 10.7966C61.4336 11.9294 61.875 13.5271 61.875 15.5896V15.7771ZM58.4883 15.531C58.4883 14.2498 58.2852 13.3162 57.8789 12.7302C57.4727 12.1365 56.8672 11.8396 56.0625 11.8396C54.9844 11.8396 54.2422 12.281 53.8359 13.1638V18.1677C54.25 19.0583 55 19.5037 56.0859 19.5037C57.1797 19.5037 57.8984 18.9646 58.2422 17.8865C58.4062 17.3708 58.4883 16.5857 58.4883 15.531Z" fill="#0A143A"/>
<path d="M67.5469 21.9998H64.1484V9.32006H67.5469V21.9998ZM63.9492 6.03881C63.9492 5.531 64.1172 5.11303 64.4531 4.78491C64.7969 4.45678 65.2617 4.29272 65.8477 4.29272C66.4258 4.29272 66.8867 4.45678 67.2305 4.78491C67.5742 5.11303 67.7461 5.531 67.7461 6.03881C67.7461 6.55444 67.5703 6.97631 67.2188 7.30444C66.875 7.63256 66.418 7.79662 65.8477 7.79662C65.2773 7.79662 64.8164 7.63256 64.4648 7.30444C64.1211 6.97631 63.9492 6.55444 63.9492 6.03881Z" fill="#0A143A"/>
<path d="M74.4023 6.20287V9.32006H76.5703V11.8044H74.4023V18.1326C74.4023 18.6013 74.4922 18.9373 74.6719 19.1404C74.8516 19.3435 75.1953 19.4451 75.7031 19.4451C76.0781 19.4451 76.4102 19.4177 76.6992 19.363V21.9294C76.0352 22.1326 75.3516 22.2341 74.6484 22.2341C72.2734 22.2341 71.0625 21.0349 71.0156 18.6365V11.8044H69.1641V9.32006H71.0156V6.20287H74.4023Z" fill="#0A143A"/>
<path d="M77.5781 15.5427C77.5781 14.2849 77.8203 13.1638 78.3047 12.1794C78.7891 11.1951 79.4844 10.4333 80.3906 9.89428C81.3047 9.35522 82.3633 9.08569 83.5664 9.08569C85.2773 9.08569 86.6719 9.60913 87.75 10.656C88.8359 11.7029 89.4414 13.1248 89.5664 14.9216L89.5898 15.7888C89.5898 17.7341 89.0469 19.2966 87.9609 20.4763C86.875 21.6482 85.418 22.2341 83.5898 22.2341C81.7617 22.2341 80.3008 21.6482 79.207 20.4763C78.1211 19.3044 77.5781 17.7107 77.5781 15.6951V15.5427ZM80.9648 15.7888C80.9648 16.9919 81.1914 17.9138 81.6445 18.5544C82.0977 19.1873 82.7461 19.5037 83.5898 19.5037C84.4102 19.5037 85.0508 19.1912 85.5117 18.5662C85.9727 17.9333 86.2031 16.9255 86.2031 15.5427C86.2031 14.363 85.9727 13.449 85.5117 12.8005C85.0508 12.1521 84.4023 11.8279 83.5664 11.8279C82.7383 11.8279 82.0977 12.1521 81.6445 12.8005C81.1914 13.4412 80.9648 14.4373 80.9648 15.7888Z" fill="#0A143A"/>
</svg>
